<svg id="Слой_1" data-name="Слой 1" xmlns="http://www.w3.org/2000/svg" width="270" height="270" viewBox="0 0 270 270"><defs><style>.cls-1{fill:#f3ba2f;}</style></defs><title>bnb</title><path class="cls-1" d="M227.56,178.46,280,126l52.46,52.46L363,148,280,65l-82.94,82.94,30.5,30.51M145,200l30.51-30.52L206,200,175.51,230.5Zm82.56,21.55L280,274l52.46-52.46L363,252h0l-83,83-83-83,30.56-30.47M354,200l30.51-30.51L415,200l-30.51,30.51Z" transform="translate(-145 -65)"/><path class="cls-1" d="M310.94,200h0l-31-31L257.12,191.9l-2.63,2.63L249.07,200l0,0,0,0L280,231l31-31v0l0,0" transform="translate(-145 -65)"/></svg>